<svg version="1.1" id="Layer_1" xmlns="http://www.w3.org/2000/svg" xmlns:xlink="http://www.w3.org/1999/xlink" x="0px" y="0px"
	 width="100%" viewBox="0 0 1024 1026" enable-background="new 0 0 1024 1026" xml:space="preserve">
<path fill="#233F13" opacity="1.000000" stroke="none" 
	d="
M1.000002,582.000000 
	C1.000000,540.979126 1.000000,499.958221 1.353989,458.269287 
	C2.794731,450.023407 3.745282,442.423096 4.989733,434.871185 
	C15.128305,373.345581 35.382580,315.368439 66.553596,261.330811 
	C114.252724,178.640274 179.769135,113.764404 262.773407,66.689613 
	C327.120758,30.195835 396.277954,8.990536 470.017090,2.767210 
	C474.032501,2.428324 478.006653,1.600325 482.000000,1.000001 
	C503.020905,1.000000 524.041809,1.000000 545.765442,1.353204 
	C562.188477,3.409447 577.982361,4.611730 593.615540,6.907631 
	C644.352417,14.358872 692.850220,29.394714 738.941528,51.827225 
	C810.152710,86.485565 870.543762,134.847153 919.789246,196.880325 
	C966.947083,256.283752 999.403748,322.976440 1017.260010,396.718811 
	C1020.016663,408.103088 1022.428650,419.570862 1025.000000,431.000000 
	C1025.000000,489.687561 1025.000000,548.375122 1024.681030,607.754517 
	C1018.300781,641.907898 1009.613831,674.657776 997.255188,706.360229 
	C964.267212,790.980774 912.240723,861.900269 842.758789,920.147156 
	C788.956116,965.249939 728.850403,998.934692 661.597168,1019.556458 
	C653.407349,1022.067749 645.199524,1024.520264 637.000000,1027.000000 
	C556.312439,1027.000000 475.624878,1027.000000 394.246216,1026.695679 
	C349.889557,1015.500488 308.346252,999.139709 269.275604,976.864502 
	C201.663971,938.317078 144.387726,887.969788 98.270180,825.131165 
	C49.239128,758.322693 18.175646,683.980652 4.838459,602.202637 
	C3.735479,595.439636 2.287623,588.732910 1.000002,582.000000 
M755.902649,924.430481 
	C779.114197,910.312622 801.165894,894.617432 821.826904,876.927307 
	C845.165466,856.944641 866.454956,834.996155 885.480225,810.924011 
	C914.357239,774.386658 937.394470,734.413818 954.522034,691.070862 
	C965.802795,662.523804 974.734009,633.232361 979.583313,602.939453 
	C982.988281,581.668701 985.655945,560.158997 986.710815,538.660767 
	C988.367432,504.899841 986.035583,471.271851 980.234192,437.840576 
	C974.173279,402.914398 964.528748,369.094940 951.043945,336.407104 
	C939.275391,307.879486 924.552124,280.905090 907.338196,255.198441 
	C890.516785,230.077972 871.341614,206.940369 850.385864,185.326126 
	C838.843384,173.421021 826.050720,162.670761 813.352722,151.955536 
	C789.114990,131.502380 762.735535,114.152168 734.678772,99.363914 
	C707.792480,85.192543 679.721924,73.926750 650.666321,65.052620 
	C616.989502,54.767094 582.514832,48.572845 547.454895,46.240814 
	C530.086487,45.085545 512.582031,45.960365 495.139099,45.945198 
	C472.954895,45.925911 451.101074,49.052174 429.350830,53.030052 
	C388.709412,60.462914 349.674713,72.981476 312.421722,90.830124 
	C277.304108,107.655678 244.727615,128.460785 214.705185,153.374664 
	C193.901993,170.638046 174.605927,189.389160 157.013977,209.815018 
	C137.443756,232.537811 120.133766,256.937866 105.224686,283.039795 
	C87.891403,313.385864 73.757050,345.136261 64.057632,378.661102 
	C58.295910,398.575745 53.530777,418.877472 49.928467,439.289459 
	C46.534111,458.523132 44.191284,478.080719 43.294388,497.583588 
	C42.026577,525.151917 42.885670,552.745667 46.809170,580.211975 
	C50.673775,607.266113 56.224819,633.882874 64.480278,659.925781 
	C76.105225,696.598145 91.903801,731.366516 112.072563,764.150269 
	C129.567932,792.588562 149.643402,819.072327 172.809601,843.089539 
	C184.116714,854.811951 196.123276,865.903931 208.299911,876.734131 
	C232.636246,898.379517 259.472137,916.627747 287.939209,932.318787 
	C326.015076,953.306274 366.227142,968.947266 408.666626,978.813416 
	C437.229919,985.453552 466.145233,989.597534 495.379181,990.790405 
	C522.304871,991.888977 549.199951,990.598022 576.011841,987.190857 
	C603.330872,983.719360 629.989441,977.510010 656.202515,969.345154 
	C691.000549,958.506165 723.832031,943.169067 755.902649,924.430481 
z"/>
<path fill="#FEFFFE" opacity="1.000000" stroke="none" 
	d="
M481.531342,1.000001 
	C478.006653,1.600325 474.032501,2.428324 470.017090,2.767210 
	C396.277954,8.990536 327.120758,30.195835 262.773407,66.689613 
	C179.769135,113.764404 114.252724,178.640274 66.553596,261.330811 
	C35.382580,315.368439 15.128305,373.345581 4.989733,434.871185 
	C3.745282,442.423096 2.794731,450.023407 1.353989,457.800659 
	C1.000000,305.737701 1.000000,153.475433 1.000000,1.000000 
	C161.020828,1.000000 321.041748,1.000000 481.531342,1.000001 
z"/>
<path fill="#FEFFFE" opacity="1.000000" stroke="none" 
	d="
M1025.000000,430.531342 
	C1022.428650,419.570862 1020.016663,408.103088 1017.260010,396.718811 
	C999.403748,322.976440 966.947083,256.283752 919.789246,196.880325 
	C870.543762,134.847153 810.152710,86.485565 738.941528,51.827225 
	C692.850220,29.394714 644.352417,14.358872 593.615540,6.907631 
	C577.982361,4.611730 562.188477,3.409447 546.234131,1.353204 
	C705.589783,1.000000 865.179626,1.000000 1025.000000,1.000000 
	C1025.000000,144.020813 1025.000000,287.041748 1025.000000,430.531342 
z"/>
<path fill="#FEFFFE" opacity="1.000000" stroke="none" 
	d="
M1.000002,582.468628 
	C2.287623,588.732910 3.735479,595.439636 4.838459,602.202637 
	C18.175646,683.980652 49.239128,758.322693 98.270180,825.131165 
	C144.387726,887.969788 201.663971,938.317078 269.275604,976.864502 
	C308.346252,999.139709 349.889557,1015.500488 393.777527,1026.695679 
	C263.068390,1027.000000 132.136780,1027.000000 1.000000,1027.000000 
	C1.000000,878.979187 1.000000,730.958252 1.000002,582.468628 
z"/>
<path fill="#FEFFFE" opacity="1.000000" stroke="none" 
	d="
M637.468628,1027.000000 
	C645.199524,1024.520264 653.407349,1022.067749 661.597168,1019.556458 
	C728.850403,998.934692 788.956116,965.249939 842.758789,920.147156 
	C912.240723,861.900269 964.267212,790.980774 997.255188,706.360229 
	C1009.613831,674.657776 1018.300781,641.907898 1024.681030,608.223206 
	C1025.000000,747.590942 1025.000000,887.181885 1025.000000,1027.000000 
	C895.979187,1027.000000 766.958252,1027.000000 637.468628,1027.000000 
z"/>
<path fill="#3F722F" opacity="1.000000" stroke="none" 
	d="
M755.592041,924.623596 
	C723.832031,943.169067 691.000549,958.506165 656.202515,969.345154 
	C629.989441,977.510010 603.330872,983.719360 576.011841,987.190857 
	C549.199951,990.598022 522.304871,991.888977 495.379181,990.790405 
	C466.145233,989.597534 437.229919,985.453552 408.666626,978.813416 
	C366.227142,968.947266 326.015076,953.306274 287.939209,932.318787 
	C259.472137,916.627747 232.636246,898.379517 208.299911,876.734131 
	C196.123276,865.903931 184.116714,854.811951 172.809601,843.089539 
	C149.643402,819.072327 129.567932,792.588562 112.072563,764.150269 
	C91.903801,731.366516 76.105225,696.598145 64.480278,659.925781 
	C56.224819,633.882874 50.673775,607.266113 46.809170,580.211975 
	C42.885670,552.745667 42.026577,525.151917 43.294388,497.583588 
	C44.191284,478.080719 46.534111,458.523132 49.928467,439.289459 
	C53.530777,418.877472 58.295910,398.575745 64.057632,378.661102 
	C73.757050,345.136261 87.891403,313.385864 105.224686,283.039795 
	C120.133766,256.937866 137.443756,232.537811 157.013977,209.815018 
	C174.605927,189.389160 193.901993,170.638046 214.705185,153.374664 
	C244.727615,128.460785 277.304108,107.655678 312.421722,90.830124 
	C349.674713,72.981476 388.709412,60.462914 429.350830,53.030052 
	C451.101074,49.052174 472.954895,45.925911 495.139099,45.945198 
	C512.582031,45.960365 530.086487,45.085545 547.454895,46.240814 
	C582.514832,48.572845 616.989502,54.767094 650.666321,65.052620 
	C679.721924,73.926750 707.792480,85.192543 734.678772,99.363914 
	C762.735535,114.152168 789.114990,131.502380 813.352722,151.955536 
	C826.050720,162.670761 838.843384,173.421021 850.385864,185.326126 
	C871.341614,206.940369 890.516785,230.077972 907.338196,255.198441 
	C924.552124,280.905090 939.275391,307.879486 951.043945,336.407104 
	C964.528748,369.094940 974.173279,402.914398 980.234192,437.840576 
	C986.035583,471.271851 988.367432,504.899841 986.710815,538.660767 
	C985.655945,560.158997 982.988281,581.668701 979.583313,602.939453 
	C974.734009,633.232361 965.802795,662.523804 954.522034,691.070862 
	C937.394470,734.413818 914.357239,774.386658 885.480225,810.924011 
	C866.454956,834.996155 845.165466,856.944641 821.826904,876.927307 
	C801.165894,894.617432 779.114197,910.312622 755.592041,924.623596 
M243.500000,518.064270 
	C204.846100,518.065491 166.191971,518.013916 127.538795,518.180237 
	C124.799919,518.192078 122.067932,519.806702 119.332726,520.675964 
	C120.706741,522.798828 121.756363,525.244995 123.502327,526.997192 
	C163.552963,567.191040 203.676590,607.312134 243.793549,647.439819 
	C256.680847,660.330566 269.590393,673.199036 282.485291,686.082153 
	C296.235016,699.819397 310.025604,713.516052 323.716583,727.311584 
	C351.239166,755.044250 378.677856,782.860168 406.206543,810.586792 
	C422.803833,827.303345 439.504120,843.917725 456.160614,860.575500 
	C464.753693,869.169250 473.356537,877.753235 481.947083,886.349609 
	C490.645660,895.054077 499.301056,903.802185 508.070496,912.434509 
	C509.143585,913.490723 510.805298,913.949036 512.194214,914.684387 
	C512.807739,913.105591 513.482178,911.546448 514.003296,909.937744 
	C514.198853,909.334106 514.039917,908.615051 514.039978,907.948608 
	C514.041077,803.316528 514.312378,698.683289 513.870972,594.053101 
	C513.745544,564.322815 499.079071,542.286255 473.273010,527.585327 
	C459.465759,519.719788 444.388916,518.071045 428.939087,518.067627 
	C367.459381,518.054016 305.979706,518.063477 243.500000,518.064270 
M519.834656,467.582367 
	C530.794128,497.333191 559.959045,517.629700 593.366150,517.316345 
	C673.853271,516.561340 754.352234,517.072937 834.846436,517.072021 
	C857.511475,517.071777 880.176880,517.121277 902.840820,516.960815 
	C904.707642,516.947571 906.564270,515.491150 908.425537,514.705322 
	C907.554138,513.215393 906.940918,511.474030 905.772156,510.273651 
	C891.132263,495.238251 876.523804,480.169342 861.694153,465.321960 
	C750.300659,353.795258 638.857117,242.318497 527.449036,130.806305 
	C525.103271,128.458405 523.160461,125.694504 520.731384,123.446976 
	C518.078430,120.992271 515.792664,121.902840 515.130615,125.481850 
	C514.891235,126.776024 514.992371,128.139130 514.992371,129.470795 
	C514.992065,232.796707 514.884033,336.122955 515.197998,439.447906 
	C515.225769,448.591553 518.010071,457.726837 519.834656,467.582367 
z"/>
<path fill="#223E12" opacity="1.000000" stroke="none" 
	d="
M244.000000,518.064331 
	C305.979706,518.063477 367.459381,518.054016 428.939087,518.067627 
	C444.388916,518.071045 459.465759,519.719788 473.273010,527.585327 
	C499.079071,542.286255 513.745544,564.322815 513.870972,594.053101 
	C514.312378,698.683289 514.041077,803.316528 514.039978,907.948608 
	C514.039917,908.615051 514.198853,909.334106 514.003296,909.937744 
	C513.482178,911.546448 512.807739,913.105591 512.194214,914.684448 
	C510.805298,913.949036 509.143585,913.490723 508.070496,912.434509 
	C499.301056,903.802185 490.645660,895.054077 481.947083,886.349609 
	C473.356537,877.753235 464.753693,869.169250 456.160614,860.575500 
	C439.504120,843.917725 422.803833,827.303345 406.206543,810.586792 
	C378.677856,782.860168 351.239166,755.044250 323.716583,727.311584 
	C310.025604,713.516052 296.235016,699.819397 282.485291,686.082153 
	C269.590393,673.199036 256.680847,660.330566 243.793549,647.439819 
	C203.676590,607.312134 163.552963,567.191040 123.502327,526.997192 
	C121.756363,525.244995 120.706741,522.798828 119.332733,520.675964 
	C122.067932,519.806702 124.799919,518.192078 127.538795,518.180237 
	C166.191971,518.013916 204.846100,518.065491 244.000000,518.064331 
z"/>
<path fill="#223E12" opacity="1.000000" stroke="none" 
	d="
M519.674438,467.224182 
	C518.010071,457.726837 515.225769,448.591553 515.197998,439.447906 
	C514.884033,336.122955 514.992065,232.796707 514.992371,129.470795 
	C514.992371,128.139130 514.891235,126.776024 515.130615,125.481850 
	C515.792664,121.902840 518.078430,120.992271 520.731384,123.446976 
	C523.160461,125.694504 525.103271,128.458405 527.449036,130.806305 
	C638.857117,242.318497 750.300659,353.795258 861.694153,465.321960 
	C876.523804,480.169342 891.132263,495.238251 905.772156,510.273651 
	C906.940918,511.474030 907.554138,513.215393 908.425537,514.705322 
	C906.564270,515.491150 904.707642,516.947571 902.840820,516.960815 
	C880.176880,517.121277 857.511475,517.071777 834.846436,517.072021 
	C754.352234,517.072937 673.853271,516.561340 593.366150,517.316345 
	C559.959045,517.629700 530.794128,497.333191 519.674438,467.224182 
z"/>
</svg>