<svg xmlns="http://www.w3.org/2000/svg" width="499" height="500" viewBox="0 0 499 500">
<g>
<path d="M 442.00 249.76 C442.00,250.74 424.99,250.98 361.25,250.91 C316.84,250.87 279.38,250.48 278.00,250.05 C268.14,247.00 259.34,239.77 253.77,230.15 L 250.50 224.50 L 250.22 141.75 C250.00,75.06 250.19,59.00 251.22,59.00 C252.87,59.00 442.00,248.11 442.00,249.76 ZM 250.00 363.11 C250.00,407.05 249.65,443.00 249.22,443.00 C248.57,443.00 189.55,384.06 77.29,271.30 L 57.08 251.00 L 138.60 251.00 C193.66,251.00 221.51,251.35 224.40,252.08 C226.76,252.67 229.77,254.14 231.10,255.34 C232.42,256.54 234.74,258.32 236.26,259.29 C240.57,262.05 245.79,269.88 248.00,276.86 C249.93,282.99 250.00,285.93 250.00,363.11 Z" fill="rgb(41,98,22)" data-index="0" style="opacity: 1;"></path>
<path d="M 276.50 498.94 C274.30,499.39 323.46,499.81 385.75,499.88 L 499.00 500.00 L 0.00 500.00 L 113.25 499.88 C175.69,499.81 224.71,499.39 222.50,498.93 C220.30,498.48 213.77,497.36 208.00,496.45 C195.39,494.46 170.04,487.90 167.50,485.96 C166.95,485.55 164.16,484.51 161.29,483.67 C156.73,482.32 139.68,474.15 124.50,466.03 C119.49,463.35 109.59,456.90 100.84,450.62 C86.80,440.54 59.05,412.82 52.16,402.00 C51.29,400.62 49.20,397.63 47.53,395.35 C45.87,393.07 43.60,389.97 42.51,388.46 C37.09,381.02 19.00,346.86 19.00,344.07 C19.00,343.57 18.36,341.89 17.57,340.33 C12.76,330.80 7.23,308.95 3.90,286.25 C2.67,277.86 1.28,271.00 0.83,271.00 C0.37,271.00 0.00,322.52 0.00,385.50 L 0.00 119.67 C0.00,185.48 0.33,239.00 0.73,238.60 C1.14,238.20 2.01,231.93 2.68,224.68 C4.01,210.16 5.38,201.34 7.62,193.00 C12.91,173.19 14.15,169.10 17.74,159.50 C20.65,151.73 30.90,130.75 32.99,128.28 C33.56,127.60 34.48,126.03 35.04,124.78 C36.68,121.07 43.68,109.96 46.86,106.00 C47.97,104.62 50.90,100.80 53.37,97.50 C61.05,87.26 79.92,67.51 88.50,60.72 C89.60,59.85 92.97,57.05 96.00,54.49 C110.66,42.12 146.49,21.97 162.73,16.95 C166.46,15.80 171.98,14.04 175.00,13.05 C179.95,11.42 185.64,9.78 196.00,7.01 C197.93,6.49 205.12,5.36 212.00,4.50 C229.49,2.29 230.85,2.05 231.52,0.96 C231.90,0.35 190.06,0.00 116.06,0.00 L 383.38 0.00 C280.72,0.00 267.89,0.17 269.00,1.50 C269.78,2.44 271.98,3.00 274.87,3.01 C287.26,3.02 326.35,11.50 335.24,16.10 C336.19,16.60 337.54,17.00 338.24,17.00 C338.93,17.00 341.52,17.97 344.00,19.17 C346.48,20.37 349.40,21.69 350.50,22.12 C359.79,25.69 379.28,36.55 393.00,45.79 C408.58,56.28 431.08,77.63 445.47,95.56 C447.65,98.28 449.70,100.72 450.02,101.00 C451.00,101.83 463.60,121.22 465.94,125.50 C467.14,127.70 469.27,131.52 470.67,134.00 C477.84,146.70 487.34,171.56 491.87,189.50 C492.99,193.90 494.62,202.90 495.51,209.50 C496.40,216.10 497.33,222.51 497.58,223.75 C497.83,224.99 498.25,226.00 498.52,226.00 C498.78,226.00 499.00,175.15 499.00,113.00 L 499.00 386.83 C499.00,324.77 498.76,274.20 498.47,274.20 C498.47,274.20 498.47,274.20 498.47,274.20 C497.76,274.91 497.38,277.15 496.56,285.50 C495.29,298.40 491.73,315.34 489.31,320.00 C488.60,321.38 488.01,323.10 488.01,323.82 C488.00,325.98 483.21,339.61 478.84,349.91 C468.33,374.73 452.90,398.06 431.62,421.34 C418.91,435.24 395.22,454.67 380.67,463.11 C377.47,464.98 372.30,467.97 369.17,469.76 C362.46,473.62 354.14,477.61 340.50,483.49 C328.83,488.53 307.52,494.23 292.00,496.47 C285.67,497.38 278.70,498.49 276.50,498.94 ZM 244.50 478.88 C255.50,479.22 266.08,479.20 268.00,478.84 C269.92,478.48 274.88,477.90 279.00,477.55 C286.12,476.96 293.70,475.48 306.00,472.28 C309.02,471.49 313.08,470.51 315.00,470.10 C316.92,469.69 319.48,468.82 320.68,468.18 C321.89,467.53 323.74,467.00 324.81,467.00 C325.88,467.00 329.40,465.83 332.63,464.40 C346.68,458.19 349.75,456.79 353.97,454.71 C358.32,452.56 377.50,440.96 379.50,439.26 C380.05,438.80 382.65,436.94 385.28,435.14 C391.45,430.91 407.98,416.41 414.87,409.19 C433.39,389.77 449.89,364.50 461.03,338.50 C467.57,323.24 474.94,295.86 476.91,279.50 C479.50,257.97 477.81,224.10 472.94,200.29 C471.04,190.99 463.80,167.72 462.16,165.63 C461.67,165.01 460.32,161.93 459.16,158.78 C454.67,146.61 447.79,134.49 434.30,115.00 C430.70,109.80 414.88,91.38 411.67,88.66 C410.48,87.65 407.02,84.46 404.00,81.59 C397.95,75.85 384.74,65.20 378.59,61.11 C374.41,58.33 370.55,56.04 362.50,51.54 C359.75,50.01 356.15,47.96 354.50,46.99 C352.85,46.02 350.38,44.90 349.00,44.50 C347.62,44.09 345.83,43.23 345.00,42.58 C341.94,40.15 325.49,33.79 317.14,31.78 C312.39,30.65 307.37,29.15 306.00,28.45 C304.62,27.75 299.67,26.66 295.00,26.03 C290.32,25.40 284.02,24.35 281.00,23.69 C273.32,22.03 227.80,22.13 218.00,23.83 C213.88,24.54 207.87,25.58 204.65,26.13 C201.42,26.69 196.70,27.74 194.15,28.48 C191.59,29.21 186.80,30.55 183.50,31.46 C180.20,32.37 176.60,33.47 175.50,33.92 C174.40,34.36 171.70,35.28 169.50,35.95 C161.93,38.27 131.49,53.95 123.00,59.90 C109.54,69.33 105.80,72.14 101.01,76.46 C93.62,83.12 72.00,105.24 72.00,106.15 C72.00,106.61 70.49,108.68 68.65,110.75 C66.81,112.81 63.15,117.88 60.52,122.00 C57.89,126.12 54.90,130.72 53.87,132.21 C52.84,133.70 52.00,135.42 52.00,136.03 C52.00,136.64 50.67,139.07 49.05,141.43 C47.42,143.79 45.32,147.70 44.37,150.11 C43.42,152.53 42.08,155.40 41.39,156.50 C40.03,158.68 35.64,169.83 33.32,177.00 C26.25,198.88 23.22,213.99 21.97,233.55 C19.83,266.97 24.66,302.27 35.16,329.89 C38.86,339.66 52.69,367.71 55.42,371.00 C56.11,371.83 58.14,374.95 59.94,377.94 C67.97,391.27 95.70,421.63 106.62,429.03 C109.30,430.85 113.53,433.99 116.00,436.00 C135.07,451.52 171.45,467.92 201.00,474.33 C216.33,477.65 221.01,478.14 244.50,478.88 Z" fill="rgb(48,170,48)" data-index="1" style="opacity: 1;"></path>
<path d="M 244.50 478.88 C221.01,478.14 216.33,477.65 201.00,474.33 C171.45,467.92 135.07,451.52 116.00,436.00 C113.53,433.99 109.30,430.85 106.62,429.03 C95.70,421.63 67.97,391.27 59.94,377.94 C58.14,374.95 56.11,371.83 55.42,371.00 C52.69,367.71 38.86,339.66 35.16,329.89 C24.66,302.27 19.83,266.97 21.97,233.55 C23.22,213.99 26.25,198.88 33.32,177.00 C35.64,169.83 40.03,158.68 41.39,156.50 C42.08,155.40 43.42,152.53 44.37,150.11 C45.32,147.70 47.42,143.79 49.05,141.43 C50.67,139.07 52.00,136.64 52.00,136.03 C52.00,135.42 52.84,133.70 53.87,132.21 C54.90,130.72 57.89,126.12 60.52,122.00 C63.15,117.88 66.81,112.81 68.65,110.75 C70.49,108.68 72.00,106.61 72.00,106.15 C72.00,105.24 93.62,83.12 101.01,76.46 C105.80,72.14 109.54,69.33 123.00,59.90 C131.49,53.95 161.93,38.27 169.50,35.95 C171.70,35.28 174.40,34.36 175.50,33.92 C176.60,33.47 180.20,32.37 183.50,31.46 C186.80,30.55 191.59,29.21 194.15,28.48 C196.70,27.74 201.42,26.69 204.65,26.13 C207.87,25.58 213.88,24.54 218.00,23.83 C227.80,22.13 273.32,22.03 281.00,23.69 C284.02,24.35 290.32,25.40 295.00,26.03 C299.67,26.66 304.62,27.75 306.00,28.45 C307.37,29.15 312.39,30.65 317.14,31.78 C325.49,33.79 341.94,40.15 345.00,42.58 C345.83,43.23 347.62,44.09 349.00,44.50 C350.38,44.90 352.85,46.02 354.50,46.99 C356.15,47.96 359.75,50.01 362.50,51.54 C370.55,56.04 374.41,58.33 378.59,61.11 C384.74,65.20 397.95,75.85 404.00,81.59 C407.02,84.46 410.48,87.65 411.67,88.66 C414.88,91.38 430.70,109.80 434.30,115.00 C447.79,134.49 454.67,146.61 459.16,158.78 C460.32,161.93 461.67,165.01 462.16,165.63 C463.80,167.72 471.04,190.99 472.94,200.29 C477.81,224.10 479.50,257.97 476.91,279.50 C474.94,295.86 467.57,323.24 461.03,338.50 C449.89,364.50 433.39,389.77 414.87,409.19 C407.98,416.41 391.45,430.91 385.28,435.14 C382.65,436.94 380.05,438.80 379.50,439.26 C377.50,440.96 358.32,452.56 353.97,454.71 C349.75,456.79 346.68,458.19 332.63,464.40 C329.40,465.83 325.88,467.00 324.81,467.00 C323.74,467.00 321.89,467.53 320.68,468.18 C319.48,468.82 316.92,469.69 315.00,470.10 C313.08,470.51 309.02,471.49 306.00,472.28 C293.70,475.48 286.12,476.96 279.00,477.55 C274.88,477.90 269.92,478.48 268.00,478.84 C266.08,479.20 255.50,479.22 244.50,478.88 ZM 442.00 249.76 C442.00,248.11 252.87,59.00 251.22,59.00 C250.19,59.00 250.00,75.06 250.22,141.75 L 250.50 224.50 L 253.77 230.15 C259.34,239.77 268.14,247.00 278.00,250.05 C279.38,250.48 316.84,250.87 361.25,250.91 C424.99,250.98 442.00,250.74 442.00,249.76 ZM 250.00 363.11 C250.00,285.93 249.93,282.99 248.00,276.86 C245.79,269.88 240.57,262.05 236.26,259.29 C234.74,258.32 232.42,256.54 231.10,255.34 C229.77,254.14 226.76,252.67 224.40,252.08 C221.51,251.35 193.66,251.00 138.60,251.00 L 57.08 251.00 L 77.29 271.30 C189.55,384.06 248.57,443.00 249.22,443.00 C249.65,443.00 250.00,407.05 250.00,363.11 ZM 0.41 385.50 L 0.32 500.00 L 0.00 500.00 L 0.00 385.50 C0.00,322.52 0.37,271.00 0.83,271.00 C0.88,271.00 0.95,271.10 1.04,271.30 C0.73,275.59 0.46,325.32 0.41,385.50 ZM 0.00 0.00 L 116.06 0.00 C190.06,0.00 231.90,0.35 231.52,0.96 C230.99,1.83 230.01,2.16 220.79,3.37 C224.43,2.87 227.20,2.43 228.00,2.23 C234.17,0.67 206.75,0.19 106.75,0.10 L 0.00 0.00 L 0.11 118.25 C0.22,232.69 0.46,241.24 2.99,219.50 C3.59,214.34 4.27,209.54 5.02,205.21 C4.14,210.57 3.40,216.78 2.68,224.68 C2.01,231.93 1.14,238.20 0.73,238.60 C0.33,239.00 0.00,185.48 0.00,119.67 ZM 383.38 0.00 L 394.15 0.00 C293.02,0.00 263.89,0.53 275.50,2.15 C281.99,3.05 306.06,7.48 312.50,8.96 C315.04,9.54 319.14,10.70 323.19,11.95 C307.84,7.67 284.04,3.02 274.87,3.01 C271.98,3.00 269.78,2.44 269.00,1.50 C267.89,0.17 280.72,0.00 383.38,0.00 ZM 207.13 5.15 C202.00,5.87 197.47,6.62 196.00,7.01 C195.67,7.10 195.35,7.18 195.03,7.27 C195.42,7.15 195.75,7.05 196.00,6.97 C197.07,6.63 201.65,5.89 207.13,5.15 ZM 180.01 11.48 C178.18,12.02 176.55,12.54 175.00,13.05 C171.98,14.04 166.46,15.80 162.73,16.95 C166.46,15.80 171.98,14.04 175.00,13.03 C176.33,12.59 178.12,12.04 180.01,11.48 Z" fill="rgb(96,195,84)" data-index="2" style="opacity: 1;"></path>

</g>
</svg>